<mxfile host="app.diagrams.net" modified="2022-06-14T04:56:18.003Z" agent="5.0 (Windows NT 10.0; Win64; x64) AppleWebKit/537.36 (KHTML, like Gecko) Chrome/102.0.5005.115 Safari/537.36" etag="3BQn8I3gvWb9yVc1PXQY" version="19.0.1" type="github">
  <diagram id="S8cHgIdRswmCJwoy3Jnh" name="Page-1">
    <mxGraphModel dx="1185" dy="635" grid="1" gridSize="10" guides="1" tooltips="1" connect="1" arrows="1" fold="1" page="1" pageScale="1" pageWidth="827" pageHeight="1169" math="0" shadow="0">
      <root>
        <mxCell id="0" />
        <mxCell id="1" parent="0" />
        <mxCell id="-0-EhircneDC3xBK8sDe-3" value="" style="edgeStyle=orthogonalEdgeStyle;rounded=0;orthogonalLoop=1;jettySize=auto;html=1;endArrow=none;endFill=0;" edge="1" parent="1" source="-0-EhircneDC3xBK8sDe-1" target="-0-EhircneDC3xBK8sDe-2">
          <mxGeometry relative="1" as="geometry" />
        </mxCell>
        <mxCell id="-0-EhircneDC3xBK8sDe-1" value="러닝스페이스&lt;br&gt;대시보드" style="rounded=0;whiteSpace=wrap;html=1;" vertex="1" parent="1">
          <mxGeometry x="360" y="185" width="120" height="60" as="geometry" />
        </mxCell>
        <mxCell id="-0-EhircneDC3xBK8sDe-5" value="" style="edgeStyle=orthogonalEdgeStyle;rounded=0;orthogonalLoop=1;jettySize=auto;html=1;endArrow=none;endFill=0;" edge="1" parent="1" source="-0-EhircneDC3xBK8sDe-2" target="-0-EhircneDC3xBK8sDe-4">
          <mxGeometry relative="1" as="geometry" />
        </mxCell>
        <mxCell id="-0-EhircneDC3xBK8sDe-2" value="보낸 챕터 목록" style="rounded=0;whiteSpace=wrap;html=1;fillColor=#1ba1e2;strokeColor=#006EAF;fontColor=#ffffff;" vertex="1" parent="1">
          <mxGeometry x="360" y="325" width="120" height="60" as="geometry" />
        </mxCell>
        <mxCell id="-0-EhircneDC3xBK8sDe-4" value="마감된 챕터 목록" style="whiteSpace=wrap;html=1;rounded=0;fillColor=#1ba1e2;strokeColor=#006EAF;fontColor=#ffffff;" vertex="1" parent="1">
          <mxGeometry x="360" y="465" width="120" height="60" as="geometry" />
        </mxCell>
        <mxCell id="-0-EhircneDC3xBK8sDe-6" value="&lt;font style=&quot;font-size: 24px;&quot;&gt;&lt;b&gt;시나리오 1&lt;/b&gt;&lt;/font&gt;" style="text;html=1;strokeColor=none;fillColor=none;align=center;verticalAlign=middle;whiteSpace=wrap;rounded=0;" vertex="1" parent="1">
          <mxGeometry x="140" y="155" width="120" height="40" as="geometry" />
        </mxCell>
        <mxCell id="-0-EhircneDC3xBK8sDe-8" value="&lt;font style=&quot;font-size: 12px;&quot;&gt;은지는 러닝스페이스 관련 정보를 얻고싶다.&lt;/font&gt;" style="text;html=1;strokeColor=none;fillColor=none;align=left;verticalAlign=middle;whiteSpace=wrap;rounded=0;fontSize=24;" vertex="1" parent="1">
          <mxGeometry x="140" y="205" width="180" height="20" as="geometry" />
        </mxCell>
        <mxCell id="-0-EhircneDC3xBK8sDe-10" value="&lt;font style=&quot;font-size: 24px;&quot;&gt;&lt;b&gt;시나리오 2&lt;/b&gt;&lt;/font&gt;" style="text;html=1;strokeColor=none;fillColor=none;align=center;verticalAlign=middle;whiteSpace=wrap;rounded=0;" vertex="1" parent="1">
          <mxGeometry x="140" y="295" width="120" height="40" as="geometry" />
        </mxCell>
        <mxCell id="-0-EhircneDC3xBK8sDe-11" value="&lt;font style=&quot;font-size: 12px;&quot;&gt;은지는 현재 진행 중인 챕터를 파악하고 싶다.&lt;/font&gt;" style="text;html=1;strokeColor=none;fillColor=none;align=left;verticalAlign=middle;whiteSpace=wrap;rounded=0;fontSize=24;" vertex="1" parent="1">
          <mxGeometry x="140" y="345" width="160" height="20" as="geometry" />
        </mxCell>
        <mxCell id="-0-EhircneDC3xBK8sDe-12" value="&lt;font style=&quot;font-size: 24px;&quot;&gt;&lt;b&gt;시나리오 3&lt;/b&gt;&lt;/font&gt;" style="text;html=1;strokeColor=none;fillColor=none;align=center;verticalAlign=middle;whiteSpace=wrap;rounded=0;" vertex="1" parent="1">
          <mxGeometry x="140" y="435" width="120" height="40" as="geometry" />
        </mxCell>
        <mxCell id="-0-EhircneDC3xBK8sDe-13" value="&lt;font style=&quot;font-size: 12px;&quot;&gt;은지는 진행했던 챕터 목록을 확인하고 싶다.&lt;/font&gt;" style="text;html=1;strokeColor=none;fillColor=none;align=left;verticalAlign=middle;whiteSpace=wrap;rounded=0;fontSize=24;" vertex="1" parent="1">
          <mxGeometry x="140" y="485" width="170" height="20" as="geometry" />
        </mxCell>
      </root>
    </mxGraphModel>
  </diagram>
</mxfile>
